<mxfile host="app.diagrams.net" modified="2021-02-10T12:02:56.257Z" agent="5.0 (Windows NT 10.0; Win64; x64) AppleWebKit/537.36 (KHTML, like Gecko) Chrome/88.0.4324.146 Safari/537.36" etag="37CGWowHn53tHM3Kg8vS" version="14.2.9" type="github">
  <diagram id="4f-kCcbtp8PoTHquihKh" name="Page-1">
    <mxGraphModel dx="981" dy="548" grid="1" gridSize="10" guides="1" tooltips="1" connect="1" arrows="1" fold="1" page="1" pageScale="1" pageWidth="850" pageHeight="1100" math="0" shadow="0">
      <root>
        <mxCell id="0" />
        <mxCell id="1" parent="0" />
        <mxCell id="9qxcTScgFRRfHaBF37N2-12" style="edgeStyle=orthogonalEdgeStyle;rounded=0;orthogonalLoop=1;jettySize=auto;html=1;exitX=0.5;exitY=1;exitDx=0;exitDy=0;entryX=-0.008;entryY=0.363;entryDx=0;entryDy=0;entryPerimeter=0;" edge="1" parent="1" source="9qxcTScgFRRfHaBF37N2-1" target="9qxcTScgFRRfHaBF37N2-3">
          <mxGeometry relative="1" as="geometry">
            <Array as="points">
              <mxPoint x="140" y="420" />
              <mxPoint x="240" y="420" />
              <mxPoint x="240" y="302" />
            </Array>
          </mxGeometry>
        </mxCell>
        <mxCell id="9qxcTScgFRRfHaBF37N2-1" value="&lt;b&gt;PRODUCER&lt;/b&gt;" style="rounded=0;whiteSpace=wrap;html=1;fillColor=#dae8fc;strokeColor=#6c8ebf;" vertex="1" parent="1">
          <mxGeometry x="80" y="200" width="120" height="80" as="geometry" />
        </mxCell>
        <mxCell id="9qxcTScgFRRfHaBF37N2-2" value="&lt;b&gt;CONSUMER&lt;/b&gt;" style="rounded=0;whiteSpace=wrap;html=1;fillColor=#d5e8d4;strokeColor=#82b366;" vertex="1" parent="1">
          <mxGeometry x="560" y="280" width="120" height="80" as="geometry" />
        </mxCell>
        <mxCell id="9qxcTScgFRRfHaBF37N2-3" value="" style="rounded=0;whiteSpace=wrap;html=1;fillColor=#ffe6cc;strokeColor=#d79b00;" vertex="1" parent="1">
          <mxGeometry x="280" y="200" width="200" height="280" as="geometry" />
        </mxCell>
        <mxCell id="9qxcTScgFRRfHaBF37N2-4" value="&lt;b&gt;KAFKA BROKER&lt;/b&gt;" style="rounded=0;whiteSpace=wrap;html=1;fillColor=#f8cecc;strokeColor=#b85450;" vertex="1" parent="1">
          <mxGeometry x="280" y="140" width="200" height="60" as="geometry" />
        </mxCell>
        <mxCell id="9qxcTScgFRRfHaBF37N2-6" value="" style="rounded=0;whiteSpace=wrap;html=1;" vertex="1" parent="1">
          <mxGeometry x="290" y="220" width="180" height="250" as="geometry" />
        </mxCell>
        <mxCell id="9qxcTScgFRRfHaBF37N2-7" value="&lt;b&gt;topics&lt;/b&gt;" style="rounded=0;whiteSpace=wrap;html=1;fillColor=#f5f5f5;strokeColor=#666666;fontColor=#333333;shadow=1;" vertex="1" parent="1">
          <mxGeometry x="290" y="220" width="180" height="40" as="geometry" />
        </mxCell>
        <mxCell id="9qxcTScgFRRfHaBF37N2-19" style="edgeStyle=orthogonalEdgeStyle;rounded=0;orthogonalLoop=1;jettySize=auto;html=1;exitX=0;exitY=0.5;exitDx=0;exitDy=0;entryX=0;entryY=0.5;entryDx=0;entryDy=0;" edge="1" parent="1" source="9qxcTScgFRRfHaBF37N2-8" target="9qxcTScgFRRfHaBF37N2-18">
          <mxGeometry relative="1" as="geometry">
            <Array as="points">
              <mxPoint x="300" y="300" />
              <mxPoint x="300" y="390" />
            </Array>
          </mxGeometry>
        </mxCell>
        <mxCell id="9qxcTScgFRRfHaBF37N2-8" value="&lt;b&gt;user-created&lt;/b&gt;" style="rounded=1;whiteSpace=wrap;html=1;fillColor=#f5f5f5;strokeColor=#666666;fontColor=#333333;shadow=1;" vertex="1" parent="1">
          <mxGeometry x="305" y="280" width="145" height="40" as="geometry" />
        </mxCell>
        <mxCell id="9qxcTScgFRRfHaBF37N2-13" value="&lt;b&gt;publish&lt;/b&gt;: { name: &quot;John&quot; }&lt;br&gt;&lt;b&gt;topic&lt;/b&gt;: user-created" style="rounded=0;whiteSpace=wrap;html=1;shadow=1;" vertex="1" parent="1">
          <mxGeometry x="30" y="380" width="180" height="60" as="geometry" />
        </mxCell>
        <mxCell id="9qxcTScgFRRfHaBF37N2-15" value="&lt;b&gt;name: sam&lt;/b&gt;" style="rounded=1;whiteSpace=wrap;html=1;shadow=1;" vertex="1" parent="1">
          <mxGeometry x="317.5" y="320" width="120" height="20" as="geometry" />
        </mxCell>
        <mxCell id="9qxcTScgFRRfHaBF37N2-16" value="&lt;b&gt;name: max&lt;/b&gt;" style="rounded=1;whiteSpace=wrap;html=1;shadow=1;" vertex="1" parent="1">
          <mxGeometry x="317.5" y="340" width="120" height="20" as="geometry" />
        </mxCell>
        <mxCell id="9qxcTScgFRRfHaBF37N2-17" value="&lt;b&gt;name: karen&lt;/b&gt;" style="rounded=1;whiteSpace=wrap;html=1;shadow=1;" vertex="1" parent="1">
          <mxGeometry x="317.5" y="360" width="120" height="20" as="geometry" />
        </mxCell>
        <mxCell id="9qxcTScgFRRfHaBF37N2-18" value="&lt;b&gt;name: john&lt;/b&gt;" style="rounded=1;whiteSpace=wrap;html=1;shadow=1;fillColor=#f5f5f5;strokeColor=#666666;fontColor=#333333;" vertex="1" parent="1">
          <mxGeometry x="317.5" y="380" width="120" height="20" as="geometry" />
        </mxCell>
      </root>
    </mxGraphModel>
  </diagram>
</mxfile>
